<?xml version="1.0" encoding="iso-8859-1"?>
<!-- Generator: Adobe Illustrator 19.0.0, SVG Export Plug-In . SVG Version: 6.00 Build 0)  -->
<svg version="1.1" id="Layer_1" xmlns="http://www.w3.org/2000/svg" xmlns:xlink="http://www.w3.org/1999/xlink" x="0px" y="0px"
	 viewBox="0 0 512 512" style="enable-background:new 0 0 512 512;" xml:space="preserve">
<g>
	<g>
		<path d="M506.285,272.074l-52.721-44.247C501.643,181.3,471.11,93.932,401.855,90.669
			c-27.509-53.085-97.843-66.035-142.446-26.423c-1.911,1.7-4.908,1.699-6.819,0c-44.696-39.694-115.004-26.528-142.447,26.422
			c-69.223,3.265-99.81,90.624-51.712,137.16L5.714,272.074c-6.768,5.68-7.65,15.771-1.971,22.54
			c22.239,26.506,58.378,34.216,88.596,21.663c-1.029,8.397-1.576,16.477-1.576,24.052c0,84.774,63.209,126.059,149.237,130.529
			v-64.413c-29.278-7.012-51.947-31.98-51.947-53c0-8.119,3.374-22.911,25.971-30.75c21.623-7.5,62.317-7.503,83.95,0
			c9.699,3.364,25.971,11.834,25.971,30.75c0,21.021-22.668,45.988-51.945,53v64.413c86.27-4.481,149.248-45.939,149.248-130.529
			c0-7.573-0.547-15.651-1.578-24.047c30.239,12.559,66.373,4.807,88.586-21.668C513.936,287.845,513.053,277.754,506.285,272.074z
			 M159.843,333.071c-11.69,0-21.166-9.476-21.166-21.166s9.476-21.166,21.166-21.166s21.166,9.476,21.166,21.166
			S171.533,333.071,159.843,333.071z M352.156,333.071c-11.69,0-21.166-9.476-21.166-21.166s9.476-21.166,21.166-21.166
			s21.166,9.476,21.166,21.166S363.846,333.071,352.156,333.071z M420.039,213.065c-16.61,9.178-26.589,4.019-33.941,6.678
			c-4.136,0.949-7.329,3.324-9.602,9.566c-7.529,20.69-26.184,36.324-49.881,38.811c-22.579,2.371-44.555-7.801-57.038-27.788
			c-0.001-0.002-0.003-0.005-0.005-0.007c-2.895-4.636-8.028-7.526-13.572-7.526c-5.479,0-10.646,2.842-13.572,7.526
			c-0.002,0.002-0.003,0.005-0.005,0.007c-12.452,19.937-34.364,30.163-57.052,27.783c-23.76-2.492-42.346-18.197-49.851-38.761
			c-0.005-0.016-0.011-0.029-0.017-0.045c-3.527-9.69-9.659-10.417-19.926-10.313c-69.069-2.378-60.355-101.617,3.531-96.208
			c7.191,0.617,13.901-3.662,16.384-10.437c14.536-39.672,64.398-52.112,95.848-24.179c14.058,12.483,35.261,12.483,49.317,0
			c31.459-27.943,81.308-15.505,95.848,24.179c2.483,6.778,9.211,11.054,16.384,10.437
			C440.188,118.734,467.719,181.278,420.039,213.065z"/>
	</g>
</g>
<g>
</g>
<g>
</g>
<g>
</g>
<g>
</g>
<g>
</g>
<g>
</g>
<g>
</g>
<g>
</g>
<g>
</g>
<g>
</g>
<g>
</g>
<g>
</g>
<g>
</g>
<g>
</g>
<g>
</g>
</svg>
